<svg xmlns="http://www.w3.org/2000/svg" width="403" height="107" viewBox="0 0 403 107" class="editor-view__logo-preview" data-v-8d8ae3dd="" data-v-b9d2a614=""><svg id="mark" viewBox="0 0 48 48" width="107" height="107" x="0" y="0" data-v-8d8ae3dd="" style="fill: rgb(255, 255, 255);"><rect x="0" y="0" width="100%" height="100%" fill="none" data-v-8d8ae3dd=""></rect><g data-v-8d8ae3dd=""><g xmlns="http://www.w3.org/2000/svg"><g><g><path d="M3,44.2c-1-4.9-1.1-9.5-0.3-14.4c1-6.5,12.4-4.5,16.9-4.5c4.6,0,9.3,0,13.9,0c1.7,0,3.4,0,5.2,0.1     c5.4,0.2,7,3.4,7.2,8.3c0.1,1.7,1.1,10.8-1.7,10.8c-4.5,0.2-9,0.1-13.5,0.1c-9.3,0.1-18.5,0.1-27.8,0.2C2,44.8,2,46,2.8,46     c14.3-0.1,28.6,0.1,42.9-0.4c2.6-0.1,1.4-5.4,1.4-6.8c0-3.3,1-9.9-1.6-12.6c-2.8-2.9-8.3-2.3-12-2.3c-7.3,0-14.6,0-21.9,0     c-4,0-8-0.2-9.8,3.9c-2.2,4.7-1,11.7,0,16.6C2,45.3,3.2,45,3,44.2L3,44.2z"></path></g></g><g><g><path d="M1.8,45.4C1.8,45.4,1.8,45.4,1.8,45.4c0.1,0.8,1.3,0.8,1.2,0c0-0.4-0.1-0.6-0.4-0.9     C2.2,43.9,1.3,44.8,1.8,45.4L1.8,45.4z"></path></g></g><g><g><path d="M1,35.5c1.4,1.5,2.8,2.2,4.8,2.4c1,0.1,4.4-1.9,4.8-1.5c1.2,1.1,3.6,1,5,1.1c0.7,0,1.7-0.2,2.4-0.5     c1.5-0.9,2-0.4,3.9,0.1c2.1,0.6,4.6,0.7,6.6,0c2-0.8,0.8-0.7,3.4-0.1c2.2,0.5,3.7,0.3,5.7-0.9c1.1-0.7,3.5,0.6,4.8,0.9     c1.2,0.2,2.3-0.1,3.5-0.4c0.8-0.2,0.4-1.4-0.3-1.2c-12.9,3.4-3-0.2-6.4-0.8c-0.3,0-0.8-0.2-1.1,0c-2.5,1.5-5.2,0.8-7.7,0.2     c-0.4-0.1-0.9,0-1.3,0.2c-1.7,1-2.1,1.6-3.9,1.6c-2.3,0-3.7-1.1-5.7-1.4c-3.4-0.4-4.4,3.7-8.6-0.1c-0.2-0.2-0.6-0.3-0.9,0     c-2.7,2.7-5.3,2.6-7.9-0.1C1.4,34,0.5,34.9,1,35.5L1,35.5z"></path></g></g><g><g><path d="M38.4,29c-0.1,0.7,0,1.3,0.2,2c0.2,0.8,1.4,0.4,1.2-0.3c-0.1-0.5-0.2-1.1-0.1-1.6     C39.7,28.2,38.5,28.2,38.4,29L38.4,29z"></path></g></g><g><g><path d="M31.1,29.2c0,0.6,0,1.1,0,1.7c0,0.8,1.3,0.8,1.3,0c0-0.6,0-1.1,0-1.7C32.4,28.4,31.1,28.4,31.1,29.2     L31.1,29.2z"></path></g></g><g><g><path d="M23.7,29.4c0,0.7,0,1.3-0.1,2c0,0.3,0.3,0.6,0.6,0.6c0.4,0,0.6-0.3,0.6-0.6c0.1-0.7,0.1-1.3,0.1-2     C24.9,28.6,23.7,28.6,23.7,29.4L23.7,29.4z"></path></g></g><g><g><path d="M16.3,29.6c0,0.5,0,1,0,1.5c0,0.8,1.3,0.8,1.3,0c0-0.5,0-1,0-1.5C17.6,28.8,16.3,28.8,16.3,29.6     L16.3,29.6z"></path></g></g><g><g><path d="M9.4,28.7c0,0.5,0,1,0,1.5c0,0.8,1.3,0.8,1.3,0c0-0.5,0-1,0-1.5C10.6,27.9,9.4,27.9,9.4,28.7L9.4,28.7z"></path></g></g><g><g><path d="M9.2,24.3c-0.1-4.2-0.7-9.8,4.6-11.7c2.8-1,6.8-0.4,9.7-0.4c3,0,6-0.1,9,0c7.1,0.1,5.8,7.6,5.9,11.9     c0,0.8,1.3,0.8,1.3,0c-0.1-3.4,0.7-8.8-2-11.5c-3.1-3.1-10.2-1.7-14.1-1.6c-3.5,0-10.3-1.1-13,2C7.6,16,7.8,20.3,8,24.3     C8,25.1,9.2,25.1,9.2,24.3L9.2,24.3z"></path></g></g><g><g><path d="M8.5,19.7c0.7,0.4,3.9,3.2,4.9,2.5c0.9-0.6,0.9-0.9,1.7-2c2.1-2.8,3.9,0.5,6.5,1.1c0.2,0.1,0.5,0,0.6-0.2     c4.1-4.6,4.2,1,7.4,0.1c0.7-0.2,0.9-1,1.2-1.5c0.9-1.8,6.6,2.3,7.4,2.6c0.7,0.3,1.4-0.8,0.6-1.1c-1.7-0.7-5.4-4.6-7.5-3.7     c-1.4,0.6-1.9,2.7-3.8,1.3c-0.8-0.6-2.1-2.1-3.3-2.1c-0.7,0-1.5,1.5-1.7,1.7c-1.5,1.9-4.4-0.2-6-0.8c-0.3-0.1-0.8-0.1-1,0.1     c-2.6,2.3-3.2,2.8-6.4,0.8C8.5,18.2,7.9,19.2,8.5,19.7L8.5,19.7z"></path></g></g><g><g><path d="M14,16c0.1,0,0.1,0,0.2,0c0.8,0,0.8-1.3,0-1.3c-0.1,0-0.1,0-0.2,0C13.2,14.8,13.2,16,14,16L14,16z"></path></g></g><g><g><path d="M17.6,16C17.7,16,17.7,16,17.6,16c0.9,0,0.9-1.3,0.1-1.3c0,0-0.1,0-0.1,0C16.8,14.8,16.8,16,17.6,16     L17.6,16z"></path></g></g><g><g><path d="M23.4,16.1c0.2,0,0.3,0,0.5,0c0.8,0,0.8-1.2,0-1.2c-0.2,0-0.3,0-0.5,0C22.6,14.9,22.6,16.1,23.4,16.1     L23.4,16.1z"></path></g></g><g><g><path d="M28.3,16.1c0.3,0,0.5,0,0.8,0c0.8,0,0.8-1.2,0-1.2c-0.3,0-0.5,0-0.8,0C27.5,14.9,27.5,16.1,28.3,16.1     L28.3,16.1z"></path></g></g><g><g><path d="M32.9,15.8c0.2,0,0.3,0,0.5,0c0.8,0,0.8-1.3,0-1.3c-0.2,0-0.3,0-0.5,0C32.1,14.5,32.1,15.8,32.9,15.8     L32.9,15.8z"></path></g></g><g><g><path d="M21.2,11c0-2.8,0.1-5.6,0.1-8.4c0-0.8-1.2-0.8-1.3,0C20,5.4,20,8.2,20,11C20,11.8,21.2,11.8,21.2,11     L21.2,11z"></path></g></g><g><g><path d="M29.2,10.6c0-2.7-0.1-5.4-0.1-8c0-0.8-1.3-0.8-1.3,0c0,2.7,0.1,5.4,0.1,8C28,11.4,29.3,11.4,29.2,10.6     L29.2,10.6z"></path></g></g></g></g></svg><svg id="name" viewBox="0 0 280.1400146484375 64.16999816894531" width="280" height="64.13792585059002" x="123" y="10.961116515750128" data-v-8d8ae3dd="" style="fill: rgb(255, 255, 255);"><rect x="0" y="0" width="100%" height="100%" fill="none" data-v-8d8ae3dd=""></rect><g data-v-8d8ae3dd=""><path xmlns="http://www.w3.org/2000/svg" d="M35.74 15.82Q35.74 19.73 33.72 23.00Q31.69 26.27 27.83 28.34Q23.97 30.41 18.63 30.77L18.63 30.77L16.65 41.86Q15.50 48.25 10.40 48.25L10.40 48.25Q7.59 48.25 5.22 46.60Q2.85 44.94 1.43 41.54Q0 38.13 0 33.17L0 33.17Q0 23.83 3.01 17.32Q6.03 10.81 11.11 7.57Q16.19 4.32 22.31 4.32L22.31 4.32Q26.63 4.32 29.65 5.84Q32.66 7.36 34.20 9.96Q35.74 12.56 35.74 15.82L35.74 15.82ZM19.46 26.04Q28.89 24.84 28.89 16.24L28.89 16.24Q28.89 13.20 26.89 11.29Q24.89 9.38 20.70 9.38L20.70 9.38Q15.96 9.38 12.44 12.37Q8.92 15.36 7.02 20.68Q5.11 25.99 5.11 32.80L5.11 32.80Q5.11 35.65 5.68 37.86Q6.26 40.07 7.15 41.29Q8.05 42.50 8.88 42.50L8.88 42.50Q10.03 42.50 10.63 39.33L10.63 39.33L12.14 30.64Q10.35 30.36 10.58 30.41L10.58 30.41Q9.20 30.18 8.79 29.55Q8.37 28.93 8.37 27.97L8.37 27.97Q8.37 26.96 8.95 26.36Q9.52 25.76 10.53 25.76L10.53 25.76Q10.99 25.76 11.22 25.81L11.22 25.81Q12.33 25.99 12.93 26.04L12.93 26.04Q13.52 22.45 14.63 16.42L14.63 16.42Q14.90 14.86 15.89 14.19Q16.88 13.52 18.22 13.52L18.22 13.52Q19.73 13.52 20.40 14.10Q21.07 14.67 21.07 15.92L21.07 15.92Q21.07 16.65 20.98 17.11L20.98 17.11L19.46 26.04ZM62.65 32.98Q63.25 32.98 63.59 33.53Q63.94 34.09 63.94 35.05L63.94 35.05Q63.94 36.89 63.07 37.90L63.07 37.90Q60.95 40.34 58.72 41.91Q56.49 43.47 53.64 43.47L53.64 43.47Q51.29 43.47 50.09 42.11Q48.90 40.76 48.90 38.18L48.90 38.18Q48.90 36.89 49.54 33.58L49.54 33.58Q50.14 30.68 50.14 29.58L50.14 29.58Q50.14 28.84 49.63 28.84L49.63 28.84Q49.04 28.84 47.93 30.38Q46.83 31.92 45.72 34.45Q44.62 36.98 43.93 39.79L43.93 39.79Q43.06 43.47 39.61 43.47L39.61 43.47Q38.23 43.47 37.79 42.48Q37.35 41.49 37.35 38.92L37.35 38.92Q37.35 37.44 37.40 36.57L37.40 36.57L37.44 32.89Q37.44 25.81 38.89 18.12Q40.34 10.44 43.17 5.22Q46 0 49.96 0L49.96 0Q52.07 0 53.38 1.82Q54.69 3.63 54.69 6.53L54.69 6.53Q54.69 11.18 51.98 16.17Q49.27 21.16 43.15 27.83L43.15 27.83Q43.01 30.22 43.01 32.75L43.01 32.75Q44.53 28.84 46.39 26.38Q48.25 23.92 50.07 22.86Q51.89 21.80 53.41 21.80L53.41 21.80Q56.40 21.80 56.40 24.79L56.40 24.79Q56.40 26.59 55.38 31.28L55.38 31.28Q54.51 35.28 54.51 36.57L54.51 36.57Q54.51 38.41 55.84 38.41L55.84 38.41Q56.76 38.41 58.03 37.28Q59.29 36.16 61.41 33.63L61.41 33.63Q61.96 32.98 62.65 32.98L62.65 32.98ZM48.99 4.55Q48.16 4.55 47.15 6.92Q46.14 9.29 45.20 13.32Q44.25 17.34 43.65 22.08L43.65 22.08Q46.51 18.72 48.37 14.77Q50.23 10.81 50.23 7.59L50.23 7.59Q50.23 6.12 49.91 5.34Q49.59 4.55 48.99 4.55L48.99 4.55ZM64.91 43.47Q62.84 43.47 61.52 41.56Q60.21 39.65 60.21 36.80L60.21 36.80Q60.21 33.35 60.67 30.48Q61.13 27.60 62.19 24.38L62.19 24.38Q62.65 23.00 63.48 22.40Q64.31 21.80 66.10 21.80L66.10 21.80Q67.11 21.80 67.50 22.13Q67.90 22.45 67.90 23.09L67.90 23.09Q67.90 23.46 67.39 25.58L67.39 25.58Q66.93 27.28 66.65 28.66L66.65 28.66Q65.73 33.49 65.73 35.10L65.73 35.10Q65.73 36.06 65.96 36.45Q66.19 36.85 66.70 36.85L66.70 36.85Q67.39 36.85 68.42 35.47Q69.46 34.09 70.63 31.28Q71.81 28.47 72.91 24.38L72.91 24.38Q73.28 23.00 74.04 22.40Q74.80 21.80 76.31 21.80L76.31 21.80Q77.37 21.80 77.79 22.06Q78.20 22.31 78.20 23.00L78.20 23.00Q78.20 24.15 77.05 29.30L77.05 29.30Q75.76 35.19 75.76 36.57L75.76 36.57Q75.76 37.44 76.13 37.93Q76.50 38.41 77.10 38.41L77.10 38.41Q78.02 38.41 79.28 37.28Q80.55 36.16 82.66 33.63L82.66 33.63Q83.21 32.98 83.90 32.98L83.90 32.98Q84.50 32.98 84.85 33.53Q85.19 34.09 85.19 35.05L85.19 35.05Q85.19 36.89 84.32 37.90L84.32 37.90Q82.34 40.34 80.06 41.91Q77.79 43.47 74.89 43.47L74.89 43.47Q72.68 43.47 71.64 41.77Q70.61 40.07 70.61 36.98L70.61 36.98Q69.83 40.11 68.26 41.79Q66.70 43.47 64.91 43.47L64.91 43.47ZM104.93 29.12Q105.52 29.12 105.85 29.72Q106.17 30.31 106.17 31.23L106.17 31.23Q106.17 33.44 104.83 33.86L104.83 33.86Q102.07 34.82 98.76 34.96L98.76 34.96Q97.89 38.82 95.31 41.15Q92.74 43.47 89.47 43.47L89.47 43.47Q86.71 43.47 84.75 42.14Q82.80 40.80 81.79 38.59Q80.78 36.39 80.78 33.81L80.78 33.81Q80.78 30.31 82.11 27.58Q83.44 24.84 85.79 23.30Q88.14 21.76 90.99 21.76L90.99 21.76Q94.48 21.76 96.62 24.17Q98.76 26.59 99.13 30.13L99.13 30.13Q101.29 29.99 104.28 29.21L104.28 29.21Q104.65 29.12 104.93 29.12L104.93 29.12ZM89.84 38.59Q91.31 38.59 92.39 37.40Q93.47 36.20 93.84 33.95L93.84 33.95Q92.41 32.98 91.66 31.42Q90.90 29.85 90.90 28.11L90.90 28.11Q90.90 27.37 91.03 26.63L91.03 26.63L90.80 26.63Q88.96 26.63 87.74 28.41Q86.53 30.18 86.53 33.40L86.53 33.40Q86.53 35.93 87.52 37.26Q88.50 38.59 89.84 38.59L89.84 38.59ZM105.48 43.47Q103.73 43.47 103.02 41.63Q102.30 39.79 102.30 35.74L102.30 35.74Q102.30 29.76 104.01 24.38L104.01 24.38Q104.42 23.05 105.36 22.43Q106.31 21.80 108.01 21.80L108.01 21.80Q108.93 21.80 109.30 22.03Q109.66 22.26 109.66 22.91L109.66 22.91Q109.66 23.64 108.97 26.22L108.97 26.22Q108.51 28.06 108.24 29.44Q107.96 30.82 107.78 32.84L107.78 32.84Q109.30 28.89 111.18 26.40Q113.07 23.92 114.88 22.86Q116.70 21.80 118.22 21.80L118.22 21.80Q121.21 21.80 121.21 24.79L121.21 24.79Q121.21 26.59 120.20 31.28L120.20 31.28Q119.32 35.28 119.32 36.57L119.32 36.57Q119.32 38.41 120.66 38.41L120.66 38.41Q121.58 38.41 122.84 37.28Q124.11 36.16 126.22 33.63L126.22 33.63Q126.78 32.98 127.47 32.98L127.47 32.98Q128.06 32.98 128.41 33.53Q128.75 34.09 128.75 35.05L128.75 35.05Q128.75 36.89 127.88 37.90L127.88 37.90Q125.90 40.34 123.62 41.91Q121.35 43.47 118.45 43.47L118.45 43.47Q116.10 43.47 114.91 42.11Q113.71 40.76 113.71 38.18L113.71 38.18Q113.71 36.89 114.36 33.58L114.36 33.58Q114.95 30.68 114.95 29.58L114.95 29.58Q114.95 28.84 114.45 28.84L114.45 28.84Q113.85 28.84 112.77 30.38Q111.69 31.92 110.56 34.45Q109.43 36.98 108.74 39.79L108.74 39.79Q108.24 41.95 107.57 42.71Q106.90 43.47 105.48 43.47L105.48 43.47ZM148.58 33.07Q149.18 33.07 149.52 33.65Q149.87 34.22 149.87 35.10L149.87 35.10Q149.87 36.16 149.55 36.75Q149.22 37.35 148.53 37.81L148.53 37.81Q144.58 40.48 142.74 41.77L142.74 41.77L139.79 43.75Q138.05 53.27 135.22 58.72Q132.39 64.17 128.02 64.17L128.02 64.17Q125.67 64.17 124.20 62.72Q122.73 61.27 122.73 58.93L122.73 58.93Q122.73 55.66 125.30 51.91Q127.88 48.16 134.96 42.69L134.96 42.69L135.24 40.89Q134.46 42.14 133.19 42.80Q131.93 43.47 130.69 43.47L130.69 43.47Q127.83 43.47 126.13 41.40Q124.43 39.33 124.43 35.97L124.43 35.97Q124.43 32.29 126.13 29.00Q127.83 25.71 130.66 23.71Q133.49 21.71 136.67 21.71L136.67 21.71Q137.68 21.71 138.02 22.10Q138.37 22.49 138.60 23.51L138.60 23.51Q139.47 23.32 140.62 23.32L140.62 23.32Q141.77 23.32 142.25 23.67Q142.74 24.01 142.74 25.02L142.74 25.02Q142.74 25.58 142.69 25.90L142.69 25.90Q142.51 27.32 141.54 33.12L141.54 33.12Q141.36 34.22 141.15 35.54Q140.94 36.85 140.71 38.32L140.71 38.32Q144.26 35.56 147.52 33.44L147.52 33.44Q148.12 33.07 148.58 33.07L148.58 33.07ZM132.34 38.82Q133.40 38.82 134.37 37.54Q135.33 36.25 135.75 33.86L135.75 33.86L137.22 25.99Q135.33 26.04 133.72 27.44Q132.11 28.84 131.15 31.14Q130.18 33.44 130.18 36.02L130.18 36.02Q130.18 37.44 130.75 38.13Q131.33 38.82 132.34 38.82L132.34 38.82ZM128.52 59.71Q129.67 59.71 131.12 56.95Q132.57 54.19 133.91 48.16L133.91 48.16Q130.36 51.20 128.80 53.64Q127.24 56.07 127.24 57.91L127.24 57.91Q127.24 58.70 127.53 59.20Q127.83 59.71 128.52 59.71L128.52 59.71ZM195.73 5.06Q197.16 5.34 197.87 6.03Q198.58 6.72 198.58 7.64L198.58 7.64Q198.58 9.15 197.73 9.84Q196.88 10.53 195.04 10.40L195.04 10.40Q190.90 10.07 188.58 9.96Q186.25 9.84 182.48 9.80L182.48 9.80Q180.78 18.26 179.35 26.82L179.35 26.82Q178.85 29.95 178.30 34.06Q177.74 38.18 177.56 40.71L177.56 40.71Q177.47 42.04 176.46 42.76Q175.44 43.47 174.02 43.47L174.02 43.47Q172.50 43.47 171.67 42.73Q170.84 42.00 170.84 40.80L170.84 40.80Q170.84 39.70 171.19 37.15Q171.53 34.59 171.99 31.79L171.99 31.79Q172.50 28.98 172.78 26.91L172.78 26.91Q173.28 23.41 173.93 19.96Q174.57 16.51 175.21 13.43L175.21 13.43Q175.35 12.74 175.54 11.85Q175.72 10.95 175.95 9.84L175.95 9.84Q171.44 9.98 168.87 10.58Q166.29 11.18 165.21 12.26Q164.13 13.34 164.13 15.04L164.13 15.04Q164.13 16.61 165.05 18.03L165.05 18.03Q165.23 18.35 165.23 18.72L165.23 18.72Q165.23 19.60 164.20 20.36Q163.16 21.11 162.06 21.11L162.06 21.11Q161.28 21.11 160.77 20.65L160.77 20.65Q159.85 19.87 159.25 18.42Q158.65 16.97 158.65 15.13L158.65 15.13Q158.65 11.22 161.21 8.86Q163.76 6.49 168.98 5.38Q174.20 4.28 182.39 4.28L182.39 4.28Q187.45 4.28 190.46 4.46Q193.48 4.65 195.73 5.06L195.73 5.06ZM193.20 43.47Q191.45 43.47 190.74 41.63Q190.03 39.79 190.03 35.74L190.03 35.74Q190.03 29.76 191.73 24.38L191.73 24.38Q192.14 23.05 193.09 22.43Q194.03 21.80 195.73 21.80L195.73 21.80Q196.65 21.80 197.02 22.03Q197.39 22.26 197.39 22.91L197.39 22.91Q197.39 23.64 196.70 26.22L196.70 26.22Q196.24 28.06 195.96 29.44Q195.68 30.82 195.50 32.84L195.50 32.84Q197.02 28.89 198.90 26.40Q200.79 23.92 202.61 22.86Q204.42 21.80 205.94 21.80L205.94 21.80Q208.93 21.80 208.93 24.79L208.93 24.79Q208.93 25.39 208.52 27.69L208.52 27.69Q208.15 29.53 208.15 29.99L208.15 29.99Q208.15 31.60 209.30 31.60L209.30 31.60Q210.59 31.60 212.61 29.58L212.61 29.58Q213.21 28.98 213.85 28.98L213.85 28.98Q214.45 28.98 214.80 29.51Q215.14 30.04 215.14 30.91L215.14 30.91Q215.14 32.61 214.22 33.58L214.22 33.58Q212.93 34.91 211.21 35.86Q209.48 36.80 207.55 36.80L207.55 36.80Q205.11 36.80 203.85 35.56Q202.58 34.32 202.58 32.20L202.58 32.20Q202.58 31.51 202.72 30.82L202.72 30.82Q202.81 29.90 202.81 29.58L202.81 29.58Q202.81 28.84 202.31 28.84L202.31 28.84Q201.62 28.84 200.49 30.38Q199.36 31.92 198.26 34.45Q197.16 36.98 196.47 39.79L196.47 39.79Q195.96 41.95 195.29 42.71Q194.63 43.47 193.20 43.47L193.20 43.47ZM216.52 43.47Q213.67 43.47 211.97 41.40Q210.27 39.33 210.27 35.97L210.27 35.97Q210.27 32.29 211.97 29.00Q213.67 25.71 216.50 23.71Q219.33 21.71 222.50 21.71L222.50 21.71Q223.51 21.71 223.86 22.10Q224.20 22.49 224.43 23.51L224.43 23.51Q225.40 23.32 226.46 23.32L226.46 23.32Q228.71 23.32 228.71 24.93L228.71 24.93Q228.71 25.90 228.02 29.53L228.02 29.53Q226.96 34.82 226.96 36.89L226.96 36.89Q226.96 37.58 227.31 38.00Q227.65 38.41 228.21 38.41L228.21 38.41Q229.08 38.41 230.32 37.28Q231.56 36.16 233.68 33.63L233.68 33.63Q234.23 32.98 234.92 32.98L234.92 32.98Q235.52 32.98 235.87 33.53Q236.21 34.09 236.21 35.05L236.21 35.05Q236.21 36.89 235.34 37.90L235.34 37.90Q233.45 40.25 231.33 41.86Q229.22 43.47 227.24 43.47L227.24 43.47Q225.72 43.47 224.46 42.44Q223.19 41.40 222.55 39.61L222.55 39.61Q220.16 43.47 216.52 43.47L216.52 43.47ZM218.18 38.82Q219.19 38.82 220.11 37.63Q221.03 36.43 221.44 34.45L221.44 34.45L223.15 25.99Q221.21 26.04 219.58 27.44Q217.95 28.84 216.98 31.14Q216.02 33.44 216.02 36.02L216.02 36.02Q216.02 37.44 216.59 38.13Q217.17 38.82 218.18 38.82L218.18 38.82ZM235.75 43.47Q234.00 43.47 233.29 41.63Q232.58 39.79 232.58 35.74L232.58 35.74Q232.58 29.76 234.28 24.38L234.28 24.38Q234.69 23.05 235.64 22.43Q236.58 21.80 238.28 21.80L238.28 21.80Q239.20 21.80 239.57 22.03Q239.94 22.26 239.94 22.91L239.94 22.91Q239.94 23.64 239.25 26.22L239.25 26.22Q238.79 28.06 238.51 29.44Q238.23 30.82 238.05 32.84L238.05 32.84Q239.57 28.89 241.45 26.40Q243.34 23.92 245.16 22.86Q246.97 21.80 248.49 21.80L248.49 21.80Q251.48 21.80 251.48 24.79L251.48 24.79Q251.48 26.59 250.47 31.28L250.47 31.28Q249.60 35.28 249.60 36.57L249.60 36.57Q249.60 38.41 250.93 38.41L250.93 38.41Q251.85 38.41 253.12 37.28Q254.38 36.16 256.50 33.63L256.50 33.63Q257.05 32.98 257.74 32.98L257.74 32.98Q258.34 32.98 258.68 33.53Q259.03 34.09 259.03 35.05L259.03 35.05Q259.03 36.89 258.15 37.90L258.15 37.90Q256.17 40.34 253.90 41.91Q251.62 43.47 248.72 43.47L248.72 43.47Q246.38 43.47 245.18 42.11Q243.98 40.76 243.98 38.18L243.98 38.18Q243.98 36.89 244.63 33.58L244.63 33.58Q245.23 30.68 245.23 29.58L245.23 29.58Q245.23 28.84 244.72 28.84L244.72 28.84Q244.12 28.84 243.04 30.38Q241.96 31.92 240.83 34.45Q239.71 36.98 239.02 39.79L239.02 39.79Q238.51 41.95 237.84 42.71Q237.18 43.47 235.75 43.47L235.75 43.47ZM278.85 33.07Q279.45 33.07 279.80 33.65Q280.14 34.22 280.14 35.10L280.14 35.10Q280.14 36.16 279.82 36.75Q279.50 37.35 278.81 37.81L278.81 37.81Q274.85 40.48 273.01 41.77L273.01 41.77L270.07 43.75Q268.32 53.27 265.49 58.72Q262.66 64.17 258.29 64.17L258.29 64.17Q255.94 64.17 254.47 62.72Q253 61.27 253 58.93L253 58.93Q253 55.66 255.58 51.91Q258.15 48.16 265.24 42.69L265.24 42.69L265.51 40.89Q264.73 42.14 263.47 42.80Q262.20 43.47 260.96 43.47L260.96 43.47Q258.11 43.47 256.40 41.40Q254.70 39.33 254.70 35.97L254.70 35.97Q254.70 32.29 256.40 29.00Q258.11 25.71 260.94 23.71Q263.76 21.71 266.94 21.71L266.94 21.71Q267.95 21.71 268.30 22.10Q268.64 22.49 268.87 23.51L268.87 23.51Q269.74 23.32 270.89 23.32L270.89 23.32Q272.04 23.32 272.53 23.67Q273.01 24.01 273.01 25.02L273.01 25.02Q273.01 25.58 272.96 25.90L272.96 25.90Q272.78 27.32 271.81 33.12L271.81 33.12Q271.63 34.22 271.42 35.54Q271.22 36.85 270.99 38.32L270.99 38.32Q274.53 35.56 277.79 33.44L277.79 33.44Q278.39 33.07 278.85 33.07L278.85 33.07ZM262.61 38.82Q263.67 38.82 264.64 37.54Q265.60 36.25 266.02 33.86L266.02 33.86L267.49 25.99Q265.60 26.04 263.99 27.44Q262.38 28.84 261.42 31.14Q260.45 33.44 260.45 36.02L260.45 36.02Q260.45 37.44 261.03 38.13Q261.60 38.82 262.61 38.82L262.61 38.82ZM258.80 59.71Q259.95 59.71 261.40 56.95Q262.84 54.19 264.18 48.16L264.18 48.16Q260.64 51.20 259.07 53.64Q257.51 56.07 257.51 57.91L257.51 57.91Q257.51 58.70 257.81 59.20Q258.11 59.71 258.80 59.71L258.80 59.71Z"></path></g></svg><svg id="slogan" viewBox="0 0 219.4199981689453 20.979999542236328" width="219" height="20.93984111790972" x="123" y="79.09904236634014" data-v-8d8ae3dd="" style="fill: rgb(255, 255, 255);"><rect x="0" y="0" width="100%" height="100%" fill="none" data-v-8d8ae3dd=""></rect><g data-v-8d8ae3dd=""><path xmlns="http://www.w3.org/2000/svg" d="M4.66 18.90Q3.92 18.90 3.60 18.57Q3.28 18.24 3.28 17.32L3.28 17.32Q3.28 16.70 3.41 15.73Q3.54 14.76 3.84 13.06L3.84 13.06Q4.36 9.92 4.66 7.62L4.66 7.62Q4.84 6.18 4.84 5.22L4.84 5.22Q4.84 4.32 4.18 4.32L4.18 4.32Q3.66 4.32 2.93 4.85Q2.20 5.38 1.32 6.54L1.32 6.54Q1.04 6.92 0.70 6.92L0.70 6.92Q0.42 6.92 0.21 6.65Q0 6.38 0 6.04L0 6.04Q0 5.72 0.13 5.39Q0.26 5.06 0.56 4.64L0.56 4.64Q1.52 3.30 2.70 2.57Q3.88 1.84 5.06 1.84L5.06 1.84Q6.16 1.84 6.75 2.54Q7.34 3.24 7.34 4.58L7.34 4.58Q7.34 5.12 7.24 5.85Q7.14 6.58 7.06 7.04Q6.98 7.50 6.94 7.68L6.94 7.68Q8.08 4.42 9.50 3.13Q10.92 1.84 12.62 1.84L12.62 1.84Q13.92 1.84 14.67 2.76Q15.42 3.68 15.42 5.36L15.42 5.36Q15.42 6.02 15.24 7L15.24 7Q16.24 4.24 17.58 3.04Q18.92 1.84 20.66 1.84L20.66 1.84Q22.06 1.84 22.81 2.74Q23.56 3.64 23.56 5.26L23.56 5.26Q23.56 6.14 23.30 7.40L23.30 7.40L22.08 13.12Q21.88 14.12 21.88 14.84L21.88 14.84Q21.88 15.68 22.27 16.10Q22.66 16.52 23.36 16.52L23.36 16.52Q24.02 16.52 24.65 16.08Q25.28 15.64 26.14 14.62L26.14 14.62Q26.38 14.34 26.68 14.34L26.68 14.34Q26.94 14.34 27.09 14.58Q27.24 14.82 27.24 15.24L27.24 15.24Q27.24 16.02 26.86 16.48L26.86 16.48Q25.82 17.74 24.80 18.32Q23.78 18.90 22.66 18.90L22.66 18.90Q20.96 18.90 20 17.89Q19.04 16.88 19.04 15.18L19.04 15.18Q19.04 14 19.52 11.76L19.52 11.76L20.32 8.10Q20.36 7.92 20.46 7.46Q20.56 7 20.62 6.59Q20.68 6.18 20.68 5.78L20.68 5.78Q20.68 5.08 20.41 4.73Q20.14 4.38 19.64 4.38L19.64 4.38Q18.70 4.38 17.67 5.59Q16.64 6.80 15.71 9.60Q14.78 12.40 14.20 16.88L14.20 16.88Q14.06 18.08 13.71 18.49Q13.36 18.90 12.58 18.90L12.58 18.90Q11.90 18.90 11.59 18.58Q11.28 18.26 11.28 17.38L11.28 17.38Q11.28 16.56 11.50 15.23Q11.72 13.90 12.06 12.10L12.06 12.10Q12.98 7.26 12.98 5.86L12.98 5.86Q12.98 5.10 12.69 4.74Q12.40 4.38 11.82 4.38L11.82 4.38Q10.84 4.38 9.80 5.49Q8.76 6.60 7.77 9.43Q6.78 12.26 6.12 17.08L6.12 17.08Q5.98 18.10 5.71 18.50Q5.44 18.90 4.66 18.90L4.66 18.90ZM28.08 18.90Q26.84 18.90 26.10 18Q25.36 17.10 25.36 15.64L25.36 15.64Q25.36 14.04 26.10 12.61Q26.84 11.18 28.07 10.31Q29.30 9.44 30.68 9.44L30.68 9.44Q31.12 9.44 31.27 9.61Q31.42 9.78 31.52 10.22L31.52 10.22Q31.94 10.14 32.40 10.14L32.40 10.14Q33.38 10.14 33.38 10.84L33.38 10.84Q33.38 11.26 33.08 12.84L33.08 12.84Q32.62 15.14 32.62 16.04L32.62 16.04Q32.62 16.34 32.77 16.52Q32.92 16.70 33.16 16.70L33.16 16.70Q33.54 16.70 34.08 16.21Q34.62 15.72 35.54 14.62L35.54 14.62Q35.78 14.34 36.08 14.34L36.08 14.34Q36.34 14.34 36.49 14.58Q36.64 14.82 36.64 15.24L36.64 15.24Q36.64 16.04 36.26 16.48L36.26 16.48Q35.44 17.50 34.52 18.20Q33.60 18.90 32.74 18.90L32.74 18.90Q32.08 18.90 31.53 18.45Q30.98 18 30.70 17.22L30.70 17.22Q29.66 18.90 28.08 18.90L28.08 18.90ZM28.80 16.88Q29.24 16.88 29.64 16.36Q30.04 15.84 30.22 14.98L30.22 14.98L30.96 11.30Q30.12 11.32 29.41 11.93Q28.70 12.54 28.28 13.54Q27.86 14.54 27.86 15.66L27.86 15.66Q27.86 16.28 28.11 16.58Q28.36 16.88 28.80 16.88L28.80 16.88ZM46.38 14.34Q46.64 14.34 46.79 14.58Q46.94 14.82 46.94 15.24L46.94 15.24Q46.94 16.04 46.56 16.48L46.56 16.48Q45.74 17.48 44.76 18.19Q43.78 18.90 42.82 18.90L42.82 18.90Q41.30 18.90 40.50 17.12L40.50 17.12Q39.66 18.18 39.03 18.54Q38.40 18.90 37.56 18.90L37.56 18.90Q36.34 18.90 35.55 17.99Q34.76 17.08 34.76 15.62L34.76 15.62Q34.76 14.02 35.44 12.65Q36.12 11.28 37.31 10.41Q38.50 9.54 39.98 9.38L39.98 9.38Q40.36 5.50 41.43 2.75Q42.50 0 44.24 0L44.24 0Q45.10 0 45.67 0.78Q46.24 1.56 46.24 3.14L46.24 3.14Q46.24 5.38 45.14 8.38Q44.04 11.38 42.20 14.54L42.20 14.54Q42.28 15.70 42.55 16.20Q42.82 16.70 43.24 16.70L43.24 16.70Q43.78 16.70 44.34 16.22Q44.90 15.74 45.84 14.62L45.84 14.62Q46.08 14.34 46.38 14.34L46.38 14.34ZM44.02 1.96Q43.64 1.96 43.26 3.31Q42.88 4.66 42.61 6.84Q42.34 9.02 42.22 11.40L42.22 11.40Q44.46 6.52 44.46 3.56L44.46 3.56Q44.46 2.80 44.33 2.38Q44.20 1.96 44.02 1.96L44.02 1.96ZM38.26 16.88Q38.64 16.88 39.02 16.57Q39.40 16.26 39.98 15.42L39.98 15.42Q39.78 14.34 39.78 13L39.78 13Q39.78 12.52 39.82 11.44L39.82 11.44Q38.72 11.78 37.99 12.91Q37.26 14.04 37.26 15.42L37.26 15.42Q37.26 16.88 38.26 16.88L38.26 16.88ZM54.24 14.34Q54.50 14.34 54.65 14.58Q54.80 14.82 54.80 15.24L54.80 15.24Q54.80 16.04 54.42 16.48L54.42 16.48Q53.68 17.38 52.33 18.14Q50.98 18.90 49.44 18.90L49.44 18.90Q47.34 18.90 46.18 17.76Q45.02 16.62 45.02 14.64L45.02 14.64Q45.02 13.26 45.60 12.07Q46.18 10.88 47.21 10.18Q48.24 9.48 49.54 9.48L49.54 9.48Q50.70 9.48 51.40 10.17Q52.10 10.86 52.10 12.04L52.10 12.04Q52.10 13.42 51.11 14.41Q50.12 15.40 47.76 15.98L47.76 15.98Q48.26 16.90 49.66 16.90L49.66 16.90Q50.56 16.90 51.71 16.27Q52.86 15.64 53.70 14.62L53.70 14.62Q53.94 14.34 54.24 14.34L54.24 14.34ZM49.20 11.44Q48.46 11.44 47.95 12.30Q47.44 13.16 47.44 14.38L47.44 14.38L47.44 14.42Q48.62 14.14 49.30 13.58Q49.98 13.02 49.98 12.28L49.98 12.28Q49.98 11.90 49.77 11.67Q49.56 11.44 49.20 11.44L49.20 11.44ZM73.40 12.72Q73.46 12.70 73.60 12.70L73.60 12.70Q73.90 12.70 74.06 12.90Q74.22 13.10 74.22 13.44L74.22 13.44Q74.22 14.06 73.98 14.41Q73.74 14.76 73.26 14.92L73.26 14.92Q72.34 15.22 71.30 15.22L71.30 15.22Q70.42 15.22 69.64 14.98L69.64 14.98Q69.06 15.92 68.36 16.92L68.36 16.92Q67.56 18.06 66.99 18.48Q66.42 18.90 65.70 18.90L65.70 18.90Q64.90 18.90 64.49 18.28Q64.08 17.66 63.98 16.24L63.98 16.24L63.88 14.78Q63.26 16.46 62.77 17.34Q62.28 18.22 61.79 18.56Q61.30 18.90 60.64 18.90L60.64 18.90Q59.82 18.90 59.35 18.26Q58.88 17.62 58.76 16.24L58.76 16.24Q58.52 13.44 58.52 11.34L58.52 11.34L58.52 10.64Q58.54 9.98 58.88 9.72Q59.22 9.46 59.90 9.46L59.90 9.46Q60.42 9.46 60.67 9.69Q60.92 9.92 60.92 10.46L60.92 10.46Q60.92 12.76 61.20 16.44L61.20 16.44Q62.56 13.58 63.70 10.48L63.70 10.48Q63.92 9.88 64.23 9.67Q64.54 9.46 64.98 9.46L64.98 9.46Q65.52 9.46 65.73 9.68Q65.94 9.90 65.94 10.46L65.94 10.46Q65.94 12.76 66.22 16.44L66.22 16.44Q67.42 14.66 68.02 13.60L68.02 13.60Q67.72 13.02 67.72 12.22L67.72 12.22Q67.72 11.54 68.02 10.90Q68.32 10.26 68.84 9.86Q69.36 9.46 70.02 9.46L70.02 9.46Q70.60 9.46 70.96 9.87Q71.32 10.28 71.32 11.06L71.32 11.06Q71.32 11.96 70.84 13.12L70.84 13.12Q71.60 13.08 72.86 12.82L72.86 12.82L73.40 12.72ZM75.10 8.16Q74.26 8.16 73.84 7.77Q73.42 7.38 73.42 6.68L73.42 6.68Q73.42 5.98 73.97 5.51Q74.52 5.04 75.34 5.04L75.34 5.04Q76.08 5.04 76.54 5.40Q77 5.76 77 6.42L77 6.42Q77 7.22 76.48 7.69Q75.96 8.16 75.10 8.16L75.10 8.16ZM74.94 18.90Q73.64 18.90 73.05 17.98Q72.46 17.06 72.46 15.54L72.46 15.54Q72.46 14.64 72.69 13.23Q72.92 11.82 73.28 10.60L73.28 10.60Q73.46 9.96 73.76 9.72Q74.06 9.48 74.72 9.48L74.72 9.48Q75.74 9.48 75.74 10.16L75.74 10.16Q75.74 10.66 75.36 12.48L75.36 12.48Q74.88 14.68 74.88 15.46L74.88 15.46Q74.88 16.06 75.04 16.38Q75.20 16.70 75.58 16.70L75.58 16.70Q75.94 16.70 76.48 16.20Q77.02 15.70 77.92 14.62L77.92 14.62Q78.16 14.34 78.46 14.34L78.46 14.34Q78.72 14.34 78.87 14.58Q79.02 14.82 79.02 15.24L79.02 15.24Q79.02 16.04 78.64 16.48L78.64 16.48Q76.66 18.90 74.94 18.90L74.94 18.90ZM86.32 14.34Q86.58 14.34 86.73 14.58Q86.88 14.82 86.88 15.24L86.88 15.24Q86.88 16.04 86.50 16.48L86.50 16.48Q85.64 17.54 84.62 18.22Q83.60 18.90 82.28 18.90L82.28 18.90Q78.20 18.90 78.20 13.16L78.20 13.16Q78.20 12.28 78.26 11.38L78.26 11.38L77.48 11.38Q76.88 11.38 76.67 11.16Q76.46 10.94 76.46 10.46L76.46 10.46Q76.46 9.34 77.36 9.34L77.36 9.34L78.50 9.34Q78.84 7.14 79.54 5.32Q80.24 3.50 81.23 2.42Q82.22 1.34 83.36 1.34L83.36 1.34Q84.20 1.34 84.68 2.08Q85.16 2.82 85.16 3.94L85.16 3.94Q85.16 7.04 82.56 9.34L82.56 9.34L84.80 9.34Q85.12 9.34 85.26 9.48Q85.40 9.62 85.40 10L85.40 10Q85.40 11.38 83.14 11.38L83.14 11.38L80.70 11.38Q80.66 12.38 80.66 12.94L80.66 12.94Q80.66 15.02 81.15 15.86Q81.64 16.70 82.70 16.70L82.70 16.70Q83.56 16.70 84.22 16.18Q84.88 15.66 85.78 14.62L85.78 14.62Q86.02 14.34 86.32 14.34L86.32 14.34ZM82.82 3.26Q82.52 3.26 82.15 4.01Q81.78 4.76 81.45 6.09Q81.12 7.42 80.90 9.04L80.90 9.04Q82.08 8.02 82.67 6.75Q83.26 5.48 83.26 4.44L83.26 4.44Q83.26 3.26 82.82 3.26L82.82 3.26ZM96.36 14.34Q96.62 14.34 96.77 14.58Q96.92 14.82 96.92 15.24L96.92 15.24Q96.92 16.04 96.54 16.48L96.54 16.48Q95.62 17.54 94.65 18.22Q93.68 18.90 92.44 18.90L92.44 18.90Q91.42 18.90 90.90 18.31Q90.38 17.72 90.38 16.60L90.38 16.60Q90.38 16.04 90.66 14.60L90.66 14.60Q90.92 13.34 90.92 12.86L90.92 12.86Q90.92 12.54 90.70 12.54L90.70 12.54Q90.44 12.54 89.96 13.21Q89.48 13.88 89 14.98Q88.52 16.08 88.22 17.30L88.22 17.30Q87.84 18.90 86.34 18.90L86.34 18.90Q85.74 18.90 85.55 18.47Q85.36 18.04 85.36 16.92L85.36 16.92Q85.36 16.28 85.38 15.90L85.38 15.90L85.40 14.30Q85.40 11.22 86.03 7.88Q86.66 4.54 87.89 2.27Q89.12 0 90.84 0L90.84 0Q91.76 0 92.33 0.79Q92.90 1.58 92.90 2.84L92.90 2.84Q92.90 4.86 91.72 7.03Q90.54 9.20 87.88 12.10L87.88 12.10Q87.82 13.14 87.82 14.24L87.82 14.24Q88.48 12.54 89.29 11.47Q90.10 10.40 90.89 9.94Q91.68 9.48 92.34 9.48L92.34 9.48Q93.64 9.48 93.64 10.78L93.64 10.78Q93.64 11.56 93.20 13.60L93.20 13.60Q92.82 15.34 92.82 15.90L92.82 15.90Q92.82 16.70 93.40 16.70L93.40 16.70Q93.80 16.70 94.35 16.21Q94.90 15.72 95.82 14.62L95.82 14.62Q96.06 14.34 96.36 14.34L96.36 14.34ZM90.42 1.98Q90.06 1.98 89.62 3.01Q89.18 4.04 88.77 5.79Q88.36 7.54 88.10 9.60L88.10 9.60Q89.34 8.14 90.15 6.42Q90.96 4.70 90.96 3.30L90.96 3.30Q90.96 2.66 90.82 2.32Q90.68 1.98 90.42 1.98L90.42 1.98ZM103.56 18.90Q103.06 18.90 102.68 18.60Q102.30 18.30 102.30 17.66L102.30 17.66L102.32 17.44Q102.54 15.38 102.85 13.15Q103.16 10.92 103.38 9.72L103.38 9.72L101.82 10.16L101.58 10.20Q101.20 10.20 100.98 9.90Q100.76 9.60 100.76 9.22L100.76 9.22L100.78 9.04Q100.82 8.66 101.02 8.42Q101.22 8.18 101.79 7.94Q102.36 7.70 103.50 7.42L103.50 7.42L104.34 7.22Q104.80 7.12 105.10 7.12L105.10 7.12Q105.68 7.12 105.97 7.42Q106.26 7.72 106.26 8.26L106.26 8.26Q106.26 8.50 106.20 8.78L106.20 8.78Q105.88 10.34 104.98 17.66L104.98 17.66Q104.82 18.90 103.56 18.90L103.56 18.90ZM112.28 18.90Q110.32 18.90 109.25 17.62Q108.18 16.34 108.18 13.96L108.18 13.96Q108.18 11.94 108.81 10.39Q109.44 8.84 110.57 7.98Q111.70 7.12 113.20 7.12L113.20 7.12Q115.16 7.12 116.23 8.40Q117.30 9.68 117.30 12.06L117.30 12.06Q117.30 14.08 116.67 15.63Q116.04 17.18 114.91 18.04Q113.78 18.90 112.28 18.90L112.28 18.90ZM112.48 16.66Q113.56 16.66 114.18 15.46Q114.80 14.26 114.80 12.20L114.80 12.20Q114.80 10.82 114.34 10.09Q113.88 9.36 113 9.36L113 9.36Q111.92 9.36 111.30 10.57Q110.68 11.78 110.68 13.84L110.68 13.84Q110.68 15.22 111.13 15.94Q111.58 16.66 112.48 16.66L112.48 16.66ZM123.14 18.90Q121.18 18.90 120.11 17.62Q119.04 16.34 119.04 13.96L119.04 13.96Q119.04 11.94 119.67 10.39Q120.30 8.84 121.43 7.98Q122.56 7.12 124.06 7.12L124.06 7.12Q126.02 7.12 127.09 8.40Q128.16 9.68 128.16 12.06L128.16 12.06Q128.16 14.08 127.53 15.63Q126.90 17.18 125.77 18.04Q124.64 18.90 123.14 18.90L123.14 18.90ZM123.34 16.66Q124.42 16.66 125.04 15.46Q125.66 14.26 125.66 12.20L125.66 12.20Q125.66 10.82 125.20 10.09Q124.74 9.36 123.86 9.36L123.86 9.36Q122.78 9.36 122.16 10.57Q121.54 11.78 121.54 13.84L121.54 13.84Q121.54 15.22 121.99 15.94Q122.44 16.66 123.34 16.66L123.34 16.66ZM142.90 4.98Q142.90 5.44 142.64 5.88L142.64 5.88L135.38 18.24Q135 18.88 134.36 18.88L134.36 18.88Q133.94 18.88 133.62 18.56Q133.30 18.24 133.30 17.74L133.30 17.74Q133.30 17.28 133.62 16.72L133.62 16.72L138.40 8.56Q137.34 8.96 136.28 9L136.28 9Q135.90 10.22 135.01 10.95Q134.12 11.68 133.02 11.68L133.02 11.68Q132.02 11.68 131.30 11.19Q130.58 10.70 130.22 9.90Q129.86 9.10 129.86 8.18L129.86 8.18Q129.86 6.90 130.35 5.91Q130.84 4.92 131.68 4.36Q132.52 3.80 133.56 3.80L133.56 3.80Q134.84 3.80 135.62 4.69Q136.40 5.58 136.52 6.86L136.52 6.86Q137.86 6.78 138.99 6.19Q140.12 5.60 140.70 4.68L140.70 4.68Q141.24 3.80 141.90 3.80L141.90 3.80Q142.32 3.80 142.61 4.14Q142.90 4.48 142.90 4.98L142.90 4.98ZM133.22 9.88Q133.64 9.88 133.98 9.52Q134.32 9.16 134.46 8.46L134.46 8.46Q134.02 8.06 133.78 7.47Q133.54 6.88 133.54 6.30L133.54 6.30Q133.54 5.98 133.60 5.62L133.60 5.62Q133.56 5.60 133.44 5.60L133.44 5.60Q132.84 5.60 132.45 6.21Q132.06 6.82 132.06 8.02L132.06 8.02Q132.06 8.94 132.39 9.41Q132.72 9.88 133.22 9.88L133.22 9.88ZM143.32 11Q144.36 11 145.08 11.49Q145.80 11.98 146.16 12.78Q146.52 13.58 146.52 14.50L146.52 14.50Q146.52 15.76 146.03 16.76Q145.54 17.76 144.69 18.32Q143.84 18.88 142.80 18.88L142.80 18.88Q141.76 18.88 141.05 18.39Q140.34 17.90 139.98 17.10Q139.62 16.30 139.62 15.38L139.62 15.38Q139.62 14.10 140.10 13.10Q140.58 12.10 141.42 11.55Q142.26 11 143.32 11L143.32 11ZM142.98 17.08Q143.54 17.08 143.93 16.46Q144.32 15.84 144.32 14.66L144.32 14.66Q144.32 13.74 143.99 13.27Q143.66 12.80 143.20 12.80L143.20 12.80Q142.60 12.80 142.21 13.41Q141.82 14.02 141.82 15.22L141.82 15.22Q141.82 16.18 142.15 16.63Q142.48 17.08 142.98 17.08L142.98 17.08ZM168.56 6.88Q168.56 8.58 167.68 10Q166.80 11.42 165.12 12.32Q163.44 13.22 161.12 13.38L161.12 13.38L160.26 18.20Q159.76 20.98 157.54 20.98L157.54 20.98Q156.32 20.98 155.29 20.26Q154.26 19.54 153.64 18.06Q153.02 16.58 153.02 14.42L153.02 14.42Q153.02 10.36 154.33 7.53Q155.64 4.70 157.85 3.29Q160.06 1.88 162.72 1.88L162.72 1.88Q164.60 1.88 165.91 2.54Q167.22 3.20 167.89 4.33Q168.56 5.46 168.56 6.88L168.56 6.88ZM161.48 11.32Q165.58 10.80 165.58 7.06L165.58 7.06Q165.58 5.74 164.71 4.91Q163.84 4.08 162.02 4.08L162.02 4.08Q159.96 4.08 158.43 5.38Q156.90 6.68 156.07 8.99Q155.24 11.30 155.24 14.26L155.24 14.26Q155.24 15.50 155.49 16.46Q155.74 17.42 156.13 17.95Q156.52 18.48 156.88 18.48L156.88 18.48Q157.38 18.48 157.64 17.10L157.64 17.10L158.30 13.32Q157.52 13.20 157.62 13.22L157.62 13.22Q157.02 13.12 156.84 12.85Q156.66 12.58 156.66 12.16L156.66 12.16Q156.66 11.72 156.91 11.46Q157.16 11.20 157.60 11.20L157.60 11.20Q157.80 11.20 157.90 11.22L157.90 11.22Q158.38 11.30 158.64 11.32L158.64 11.32Q158.90 9.76 159.38 7.14L159.38 7.14Q159.50 6.46 159.93 6.17Q160.36 5.88 160.94 5.88L160.94 5.88Q161.60 5.88 161.89 6.13Q162.18 6.38 162.18 6.92L162.18 6.92Q162.18 7.24 162.14 7.44L162.14 7.44L161.48 11.32ZM169.92 18.90Q168.68 18.90 167.94 18Q167.20 17.10 167.20 15.64L167.20 15.64Q167.20 14.04 167.94 12.61Q168.68 11.18 169.91 10.31Q171.14 9.44 172.52 9.44L172.52 9.44Q172.96 9.44 173.11 9.61Q173.26 9.78 173.36 10.22L173.36 10.22Q173.78 10.14 174.24 10.14L174.24 10.14Q175.22 10.14 175.22 10.84L175.22 10.84Q175.22 11.26 174.92 12.84L174.92 12.84Q174.46 15.14 174.46 16.04L174.46 16.04Q174.46 16.34 174.61 16.52Q174.76 16.70 175.00 16.70L175.00 16.70Q175.38 16.70 175.92 16.21Q176.46 15.72 177.38 14.62L177.38 14.62Q177.62 14.34 177.92 14.34L177.92 14.34Q178.18 14.34 178.33 14.58Q178.48 14.82 178.48 15.24L178.48 15.24Q178.48 16.04 178.10 16.48L178.10 16.48Q177.28 17.50 176.36 18.20Q175.44 18.90 174.58 18.90L174.58 18.90Q173.92 18.90 173.37 18.45Q172.82 18 172.54 17.22L172.54 17.22Q171.50 18.90 169.92 18.90L169.92 18.90ZM170.64 16.88Q171.08 16.88 171.48 16.36Q171.88 15.84 172.06 14.98L172.06 14.98L172.80 11.30Q171.96 11.32 171.25 11.93Q170.54 12.54 170.12 13.54Q169.70 14.54 169.70 15.66L169.70 15.66Q169.70 16.28 169.95 16.58Q170.20 16.88 170.64 16.88L170.64 16.88ZM180.58 19.34Q179.54 19.34 178.99 18.86Q178.44 18.38 178.44 17.78L178.44 17.78Q178.44 17.26 178.82 16.88Q179.20 16.50 179.94 16.50L179.94 16.50Q180.20 16.50 180.55 16.55Q180.90 16.60 181.08 16.62L181.08 16.62Q181.06 16.10 180.85 15.64Q180.64 15.18 180.32 14.75Q180.00 14.32 179.72 14L179.72 14Q179.10 15.18 178.49 15.96Q177.88 16.74 177.16 17.44L177.16 17.44Q176.80 17.80 176.40 17.80L176.40 17.80Q176.08 17.80 175.88 17.57Q175.68 17.34 175.68 17L175.68 17Q175.68 16.60 175.96 16.26L175.96 16.26L176.22 15.94Q177.32 14.58 177.88 13.70L177.88 13.70Q178.22 13.12 178.68 12.15Q179.14 11.18 179.58 10.14L179.58 10.14Q179.96 9.26 181.16 9.26L181.16 9.26Q181.72 9.26 181.94 9.36Q182.16 9.46 182.16 9.68L182.16 9.68Q182.16 9.80 182.08 10.06Q182.00 10.32 181.86 10.58L181.86 10.58Q181.50 11.30 181.50 11.80L181.50 11.80Q181.50 12.10 181.71 12.46Q181.92 12.82 182.36 13.36L182.36 13.36Q183.00 14.20 183.33 14.79Q183.66 15.38 183.66 16.08L183.66 16.08Q183.66 16.28 183.62 16.64L183.62 16.64Q184.60 16.26 185.92 14.62L185.92 14.62Q186.16 14.34 186.46 14.34L186.46 14.34Q186.72 14.34 186.87 14.58Q187.02 14.82 187.02 15.24L187.02 15.24Q187.02 16 186.64 16.48L186.64 16.48Q185.64 17.72 184.73 18.17Q183.82 18.62 182.48 18.66L182.48 18.66Q181.68 19.34 180.58 19.34L180.58 19.34ZM189.12 19.34Q188.08 19.34 187.53 18.86Q186.98 18.38 186.98 17.78L186.98 17.78Q186.98 17.26 187.36 16.88Q187.74 16.50 188.48 16.50L188.48 16.50Q188.74 16.50 189.09 16.55Q189.44 16.60 189.62 16.62L189.62 16.62Q189.60 16.10 189.39 15.64Q189.18 15.18 188.86 14.75Q188.54 14.32 188.26 14L188.26 14Q187.64 15.18 187.03 15.96Q186.42 16.74 185.70 17.44L185.70 17.44Q185.34 17.80 184.94 17.80L184.94 17.80Q184.62 17.80 184.42 17.57Q184.22 17.34 184.22 17L184.22 17Q184.22 16.60 184.50 16.26L184.50 16.26L184.76 15.94Q185.86 14.58 186.42 13.70L186.42 13.70Q186.76 13.12 187.22 12.15Q187.68 11.18 188.12 10.14L188.12 10.14Q188.50 9.26 189.70 9.26L189.70 9.26Q190.26 9.26 190.48 9.36Q190.70 9.46 190.70 9.68L190.70 9.68Q190.70 9.80 190.62 10.06Q190.54 10.32 190.40 10.58L190.40 10.58Q190.04 11.30 190.04 11.80L190.04 11.80Q190.04 12.10 190.25 12.46Q190.46 12.82 190.90 13.36L190.90 13.36Q191.54 14.20 191.87 14.79Q192.20 15.38 192.20 16.08L192.20 16.08Q192.20 16.28 192.16 16.64L192.16 16.64Q193.14 16.26 194.46 14.62L194.46 14.62Q194.70 14.34 195.00 14.34L195.00 14.34Q195.26 14.34 195.41 14.58Q195.56 14.82 195.56 15.24L195.56 15.24Q195.56 16 195.18 16.48L195.18 16.48Q194.18 17.72 193.27 18.17Q192.36 18.62 191.02 18.66L191.02 18.66Q190.22 19.34 189.12 19.34L189.12 19.34ZM196.56 8.16Q195.72 8.16 195.30 7.77Q194.88 7.38 194.88 6.68L194.88 6.68Q194.88 5.98 195.43 5.51Q195.98 5.04 196.80 5.04L196.80 5.04Q197.54 5.04 198.00 5.40Q198.46 5.76 198.46 6.42L198.46 6.42Q198.46 7.22 197.94 7.69Q197.42 8.16 196.56 8.16L196.56 8.16ZM196.40 18.90Q195.10 18.90 194.51 17.98Q193.92 17.06 193.92 15.54L193.92 15.54Q193.92 14.64 194.15 13.23Q194.38 11.82 194.74 10.60L194.74 10.60Q194.92 9.96 195.22 9.72Q195.52 9.48 196.18 9.48L196.18 9.48Q197.20 9.48 197.20 10.16L197.20 10.16Q197.20 10.66 196.82 12.48L196.82 12.48Q196.34 14.68 196.34 15.46L196.34 15.46Q196.34 16.06 196.50 16.38Q196.66 16.70 197.04 16.70L197.04 16.70Q197.40 16.70 197.94 16.20Q198.48 15.70 199.38 14.62L199.38 14.62Q199.62 14.34 199.92 14.34L199.92 14.34Q200.18 14.34 200.33 14.58Q200.48 14.82 200.48 15.24L200.48 15.24Q200.48 16.04 200.10 16.48L200.10 16.48Q198.12 18.90 196.40 18.90L196.40 18.90ZM209.06 12.66Q209.32 12.66 209.46 12.92Q209.60 13.18 209.60 13.58L209.60 13.58Q209.60 14.54 209.02 14.72L209.02 14.72Q207.82 15.14 206.38 15.20L206.38 15.20Q206 16.88 204.88 17.89Q203.76 18.90 202.34 18.90L202.34 18.90Q201.14 18.90 200.29 18.32Q199.44 17.74 199 16.78Q198.56 15.82 198.56 14.70L198.56 14.70Q198.56 13.18 199.14 11.99Q199.72 10.80 200.74 10.13Q201.76 9.46 203 9.46L203 9.46Q204.52 9.46 205.45 10.51Q206.38 11.56 206.54 13.10L206.54 13.10Q207.48 13.04 208.78 12.70L208.78 12.70Q208.94 12.66 209.06 12.66L209.06 12.66ZM202.50 16.78Q203.14 16.78 203.61 16.26Q204.08 15.74 204.24 14.76L204.24 14.76Q203.62 14.34 203.29 13.66Q202.96 12.98 202.96 12.22L202.96 12.22Q202.96 11.90 203.02 11.58L203.02 11.58L202.92 11.58Q202.12 11.58 201.59 12.35Q201.06 13.12 201.06 14.52L201.06 14.52Q201.06 15.62 201.49 16.20Q201.92 16.78 202.50 16.78L202.50 16.78ZM209.30 18.90Q208.54 18.90 208.23 18.10Q207.92 17.30 207.92 15.54L207.92 15.54Q207.92 12.94 208.66 10.60L208.66 10.60Q208.84 10.02 209.25 9.75Q209.66 9.48 210.40 9.48L210.40 9.48Q210.80 9.48 210.96 9.58Q211.12 9.68 211.12 9.96L211.12 9.96Q211.12 10.28 210.82 11.40L210.82 11.40Q210.62 12.20 210.50 12.80Q210.38 13.40 210.30 14.28L210.30 14.28Q210.96 12.56 211.78 11.48Q212.60 10.40 213.39 9.94Q214.18 9.48 214.84 9.48L214.84 9.48Q216.14 9.48 216.14 10.78L216.14 10.78Q216.14 11.56 215.70 13.60L215.70 13.60Q215.32 15.34 215.32 15.90L215.32 15.90Q215.32 16.70 215.90 16.70L215.90 16.70Q216.30 16.70 216.85 16.21Q217.40 15.72 218.32 14.62L218.32 14.62Q218.56 14.34 218.86 14.34L218.86 14.34Q219.12 14.34 219.27 14.58Q219.42 14.82 219.42 15.24L219.42 15.24Q219.42 16.04 219.04 16.48L219.04 16.48Q218.18 17.54 217.19 18.22Q216.20 18.90 214.94 18.90L214.94 18.90Q213.92 18.90 213.40 18.31Q212.88 17.72 212.88 16.60L212.88 16.60Q212.88 16.04 213.16 14.60L213.16 14.60Q213.42 13.34 213.42 12.86L213.42 12.86Q213.42 12.54 213.20 12.54L213.20 12.54Q212.94 12.54 212.47 13.21Q212.00 13.88 211.51 14.98Q211.02 16.08 210.72 17.30L210.72 17.30Q210.50 18.24 210.21 18.57Q209.92 18.90 209.30 18.90L209.30 18.90Z"></path></g></svg></svg>